<svg width="34" height="36" viewBox="0 0 34 36" fill="none" xmlns="http://www.w3.org/2000/svg">
<path d="M12.9399 33.8251H21.0579C25.6816 33.8251 27.9669 31.4514 27.927 26.704C27.8738 21.2823 27.8473 17.3441 27.7144 14.3905C27.3292 5.70495 24.9243 3.15593 17.0056 3.15593C9.08685 3.15593 6.66871 5.70495 6.28341 14.3905C6.15054 17.3441 6.12397 21.2823 6.07082 26.704C6.03097 31.4514 8.31623 33.8251 12.9399 33.8251ZM12.5546 28.4708C11.412 28.4708 10.6812 27.7155 10.6812 26.5827V19.6234C10.6812 18.477 11.412 17.7217 12.5546 17.7217H21.4565C22.5859 17.7217 23.3166 18.477 23.3166 19.6234V26.5827C23.3166 27.7155 22.5859 28.4708 21.4565 28.4708H12.5546ZM10.6812 22.9143H23.3166V21.3092H10.6812V22.9143ZM17.0056 0C14.4546 0 12.6609 1.7533 12.6609 4.14048H14.5343C14.5343 2.83225 15.544 1.90165 17.0056 1.90165C18.4537 1.90165 19.4769 2.83225 19.4769 4.14048H21.3502C21.3502 1.7533 19.5433 0 17.0056 0Z" fill="#FF9500"/>
</svg>
