<svg width="34" height="34" viewBox="0 0 34 34" fill="none" xmlns="http://www.w3.org/2000/svg">
<path d="M0 17.5893C0 20.0292 1.69061 21.3688 3.59254 21.3688C4.39088 21.3688 4.98964 21.1415 5.7058 20.687C6.375 20.2684 6.85635 20.5195 6.85635 21.1056V25.5309C6.85635 27.8871 8.07735 29.0951 10.4136 29.0951H13.5483C14.1118 29.0951 14.3584 28.6166 13.9593 27.935C13.5014 27.2053 13.2783 26.5954 13.2783 25.7821C13.2783 23.8446 14.6049 22.1223 17 22.1223C19.3951 22.1223 20.71 23.8446 20.71 25.7821C20.71 26.5954 20.4869 27.2053 20.0407 27.935C19.6416 28.6166 19.8763 29.0951 20.4517 29.0951H23.5864C25.9227 29.0951 27.1437 27.8871 27.1437 25.5309V21.1056C27.1437 20.5195 27.625 20.2684 28.2825 20.687C29.0103 21.1415 29.6091 21.3688 30.3957 21.3688C32.3094 21.3688 34 20.0292 34 17.5893C34 15.1374 32.3094 13.7979 30.3957 13.7979C29.6091 13.7979 29.0103 14.0251 28.2825 14.4796C27.625 14.8982 27.1437 14.6471 27.1437 14.061V9.6357C27.1437 7.29148 25.9227 6.07153 23.5864 6.07153H20.4517C19.8763 6.07153 19.6416 6.56191 20.0407 7.24364C20.4869 7.97322 20.71 8.5832 20.71 9.39649C20.71 11.3341 19.3951 13.0563 17 13.0563C14.6049 13.0563 13.2783 11.3341 13.2783 9.39649C13.2783 8.5832 13.5014 7.97322 13.9593 7.24364C14.3584 6.56191 14.1118 6.07153 13.5483 6.07153H10.4136C8.07735 6.07153 6.85635 7.29148 6.85635 9.6357V14.061C6.85635 14.6471 6.375 14.8982 5.7058 14.4796C4.98964 14.0251 4.39088 13.7979 3.59254 13.7979C1.69061 13.7979 0 15.1374 0 17.5893Z" fill="#FF9500"/>
</svg>
