<svg width="35" height="34" viewBox="0 0 35 34" fill="none" xmlns="http://www.w3.org/2000/svg">
<path d="M9.72406 31.709H28.1517C28.7779 31.709 29.2901 31.2109 29.2901 30.5706C29.2901 30.0725 28.9487 29.6313 28.4933 29.4748C26.7003 28.7633 26.3303 26.4438 28.0949 24.6651C28.6356 24.1244 29.2901 23.4272 29.2901 22.0041V5.68243C29.2901 2.72261 27.8245 1.21423 24.8789 1.21423H9.76674C6.82115 1.21423 5.35547 2.70838 5.35547 5.68243V27.3119C5.35547 30.2432 6.83538 31.709 9.72406 31.709ZM9.85211 29.418C8.4149 29.418 7.64649 28.6496 7.64649 27.2977C7.64649 26.017 8.5572 25.1916 9.98019 25.1916H24.58C24.7651 25.1916 24.9358 25.1774 25.0781 25.1489C24.4093 26.6289 24.5232 28.1942 25.2773 29.418H9.85211ZM9.42522 23.0286C8.98409 23.0286 8.61411 22.6588 8.61411 22.2034V4.23098C8.61411 3.77562 8.98409 3.41987 9.42522 3.41987C9.86635 3.41987 10.2506 3.77562 10.2506 4.23098V22.2034C10.2506 22.6588 9.86635 23.0286 9.42522 23.0286Z" fill="#FF9500"/>
</svg>
