<svg width="35" height="34" viewBox="0 0 35 34" fill="none" xmlns="http://www.w3.org/2000/svg">
<path d="M28.2626 30.0014C28.9029 30.0014 29.4294 29.4892 29.4294 28.863C29.4294 28.2227 28.9029 27.6962 28.2626 27.6962H26.5265V18.2618C26.5265 13.0679 22.5279 9.05503 17.334 9.05503C12.1543 9.05503 8.15569 13.0679 8.15569 18.2618V27.6962H6.39118C5.76507 27.6962 5.26702 28.2227 5.26702 28.863C5.26702 29.4892 5.76507 30.0014 6.39118 30.0014H28.2626ZM18.5293 18.3045V27.6962H16.1671V18.3045C16.1671 17.65 16.6794 17.1091 17.334 17.1091C17.9885 17.1091 18.5293 17.65 18.5293 18.3045ZM4.44168 19.2863C5.1105 19.2863 5.69391 18.7314 5.69391 18.0768C5.69391 17.3937 5.1105 16.8388 4.44168 16.8388H1.70954C1.05497 16.8388 0.5 17.4079 0.5 18.0768C0.5 18.7172 1.05497 19.2863 1.70954 19.2863H4.44168ZM7.35882 9.82345C7.82841 10.293 8.61105 10.3073 9.08064 9.82345C9.56445 9.33964 9.55022 8.57121 9.08064 8.10164L7.1596 6.16636C6.70425 5.68255 5.90736 5.68255 5.42355 6.16636C4.95396 6.65018 4.95396 7.40437 5.42355 7.88818L7.35882 9.82345ZM16.1102 5.1845C16.1102 5.8533 16.6652 6.4225 17.334 6.4225C18.017 6.4225 18.572 5.8533 18.572 5.1845V2.45236C18.572 1.78355 18.0028 1.21436 17.334 1.21436C16.6652 1.21436 16.1102 1.78355 16.1102 2.45236V5.1845ZM25.5731 8.10164C25.1035 8.57121 25.0893 9.33964 25.5731 9.82345C26.0712 10.3073 26.8253 10.293 27.2949 9.82345L29.2444 7.88818C29.714 7.40437 29.714 6.65018 29.2444 6.16636C28.7463 5.68255 27.9922 5.68255 27.5226 6.16636L25.5731 8.10164ZM32.9443 19.2863C33.613 19.2863 34.1822 18.7172 34.1822 18.0768C34.1822 17.4079 33.613 16.8388 32.9443 16.8388H30.2121C29.5575 16.8388 28.9882 17.3937 28.9882 18.0768C28.9882 18.7314 29.5575 19.2863 30.2121 19.2863H32.9443Z" fill="#FF9500"/>
</svg>
