<svg width="28" height="28" viewBox="0 0 28 28" fill="none" xmlns="http://www.w3.org/2000/svg">
<path d="M10.5393 20.9684C14.5075 19.8763 16.2058 16.7396 15.087 12.5109L13.5818 6.763C13.1713 5.21928 12.1733 4.66092 10.6359 5.07148L2.65938 7.23104C1.11397 7.65802 0.542495 8.64337 0.952994 10.2199L2.4501 15.9595C3.55281 20.1802 6.57118 22.0523 10.5393 20.9684ZM9.78276 18.0288C8.10047 18.4722 6.46655 17.8892 5.6053 16.4933C5.43628 16.2388 5.58116 15.9842 5.90312 16.0089C6.97363 16.0992 8.24539 15.9103 9.16295 15.6558C10.0644 15.4176 11.2396 14.9414 12.133 14.3091C12.3986 14.112 12.6643 14.2516 12.6481 14.5883C12.5918 16.2306 11.473 17.5526 9.78276 18.0288ZM5.72605 12.6341C5.12237 12.8064 5.04188 13.217 4.78431 13.2581C4.66358 13.2827 4.51869 13.1431 4.44625 12.905C4.25307 12.2071 4.68773 11.4598 5.37994 11.2874C6.0802 11.115 6.79656 11.5337 6.97363 12.2071C7.04608 12.4534 6.98168 12.6423 6.8529 12.6915C6.55509 12.7982 6.27337 12.4862 5.72605 12.6341ZM10.6359 11.2792C10.0322 11.4598 9.95173 11.8622 9.69416 11.895C9.57348 11.9196 9.42856 11.7801 9.35616 11.5501C9.16295 10.8604 9.59759 10.105 10.2898 9.93253C10.9981 9.74368 11.7064 10.1707 11.8835 10.8522C11.9559 11.1067 11.8916 11.2874 11.7628 11.3367C11.473 11.4434 11.1832 11.1232 10.6359 11.2792ZM26.1544 9.35774L18.1859 7.18177C16.7692 6.79584 15.7712 7.22283 15.3606 8.50377L15.2641 8.85686L16.1495 12.2235C17.0348 15.5819 16.3105 18.423 14.2499 20.2623C15.0387 21.5925 16.4393 22.5861 18.2905 23.0869C22.2426 24.1626 25.2449 22.2904 26.3556 18.0699L27.8769 12.3384C28.2793 10.7865 27.6998 9.77652 26.1544 9.35774ZM18.041 14.3337C17.4856 14.1942 17.1556 13.6194 17.3085 13.0364C17.4614 12.4698 18.0249 12.1331 18.5802 12.2892C19.1356 12.4452 19.4657 13.0282 19.3208 13.5947C19.1678 14.1613 18.6044 14.4898 18.041 14.3337ZM22.7657 15.6229C22.2184 15.4751 21.8884 14.8921 22.0413 14.3173C22.1862 13.7508 22.7497 13.4223 23.3051 13.5783C23.8685 13.7179 24.1904 14.3009 24.0455 14.8757C23.8926 15.4423 23.3292 15.7789 22.7657 15.6229ZM19.3771 18.776C18.5401 18.5379 17.7351 18.5297 16.7049 18.7596C16.3829 18.8335 16.1897 18.5625 16.3588 18.2916C17.051 17.183 18.4515 16.7232 19.8118 17.1092C21.2203 17.4704 22.1782 18.5707 22.2264 19.8845C22.2426 20.213 21.9448 20.3526 21.7033 20.1309C20.9065 19.3919 20.2223 18.9977 19.3771 18.776Z" fill="#FF9500"/>
</svg>
