<svg width="28" height="28" viewBox="0 0 28 28" fill="none" xmlns="http://www.w3.org/2000/svg">
<path d="M13.5859 25.6602C13.7734 25.6602 14.0664 25.5898 14.3594 25.4375C21.0273 21.9453 23.1719 20.1992 23.1719 15.9922V7.15625C23.1719 5.94922 22.6562 5.5625 21.6719 5.15234C20.3008 4.58984 15.918 2.99609 14.5586 2.52734C14.2422 2.42188 13.9141 2.36328 13.5859 2.36328C13.2578 2.36328 12.9297 2.43359 12.625 2.52734C11.2539 2.97266 6.87109 4.60156 5.5 5.15234C4.52734 5.55078 4 5.94922 4 7.15625V15.9922C4 20.1992 6.26172 21.7461 12.8125 25.4375C13.1172 25.6016 13.3984 25.6602 13.5859 25.6602ZM8.30078 14.3984C8.30078 14.2578 8.37109 14.082 8.5 13.9297L15.1211 5.62109C15.625 4.98828 16.4688 5.41016 16.1641 6.19531L13.9844 12.0547H18.0742C18.3906 12.0547 18.625 12.2773 18.625 12.5938C18.625 12.7344 18.5547 12.9102 18.4258 13.0625L11.8047 21.3711C11.3008 22.0039 10.4688 21.582 10.7617 20.8086L12.9531 14.9375H8.85156C8.54688 14.9375 8.30078 14.7148 8.30078 14.3984Z" fill="#FF9500"/>
</svg>
