<svg width="18" height="21" viewBox="0 0 18 21" fill="none" xmlns="http://www.w3.org/2000/svg">
<path fill-rule="evenodd" clip-rule="evenodd" d="M8.53975 20.351C8.56995 20.3685 8.59369 20.3821 8.6105 20.3915L8.63843 20.4071C8.8613 20.5294 9.13776 20.5285 9.36084 20.4075L9.3895 20.3915C9.40631 20.3821 9.43005 20.3685 9.46025 20.351C9.52066 20.316 9.60697 20.265 9.7155 20.1982C9.93246 20.0646 10.2388 19.8676 10.6046 19.6091C11.3351 19.0931 12.3097 18.3274 13.2865 17.3273C15.2307 15.3368 17.25 12.3462 17.25 8.5C17.25 3.94365 13.5563 0.25 9 0.25C4.44365 0.25 0.75 3.94365 0.75 8.5C0.75 12.3462 2.76932 15.3368 4.71346 17.3273C5.69025 18.3274 6.66491 19.0931 7.39539 19.6091C7.76125 19.8676 8.06754 20.0646 8.2845 20.1982C8.39303 20.265 8.47934 20.316 8.53975 20.351ZM9 11.5C10.6569 11.5 12 10.1569 12 8.5C12 6.84315 10.6569 5.5 9 5.5C7.34315 5.5 6 6.84315 6 8.5C6 10.1569 7.34315 11.5 9 11.5Z" fill="#262626"/>
</svg>
