<svg width="31" height="30" viewBox="0 0 31 30" fill="none" xmlns="http://www.w3.org/2000/svg">
<path fill-rule="evenodd" clip-rule="evenodd" d="M23 15C23 15.6213 22.4963 16.125 21.875 16.125H11.9181L15.1547 19.0641C15.6026 19.4947 15.6166 20.2069 15.1859 20.6547C14.7553 21.1026 14.0431 21.1166 13.5953 20.6859L8.34525 15.8109C8.12466 15.5988 8 15.306 8 15C8 14.694 8.12466 14.4012 8.34525 14.1891L13.5953 9.31406C14.0431 8.88342 14.7553 8.89739 15.1859 9.34525C15.6166 9.79312 15.6026 10.5053 15.1547 10.9359L11.9181 13.875L21.875 13.875C22.4963 13.875 23 14.3787 23 15Z" fill="#262626"/>
</svg>
