<svg width="100" height="30" viewBox="0 0 100 30" fill="none" xmlns="http://www.w3.org/2000/svg">
<path d="M15.2747 0.180786C7.05948 0.180786 0.399414 6.84067 0.399414 15.0559C0.399414 23.2714 7.05948 29.9308 15.2747 29.9308C23.4908 29.9308 30.1501 23.2714 30.1501 15.0559C30.1501 6.8412 23.4908 0.181497 15.2745 0.181497L15.2747 0.180786ZM22.0964 21.6349C21.83 22.0719 21.258 22.2105 20.821 21.9422C17.3285 19.8089 12.9318 19.3257 7.75383 20.5088C7.25487 20.6224 6.75751 20.3098 6.64382 19.8107C6.52961 19.3115 6.84099 18.8142 7.3412 18.7005C13.0076 17.4059 17.8681 17.9633 21.7891 20.3596C22.2261 20.6278 22.3646 21.198 22.0964 21.6349ZM23.9171 17.5846C23.5814 18.1303 22.8673 18.3026 22.322 17.9669C18.3235 15.5092 12.2285 14.7974 7.49911 16.233C6.88576 16.4183 6.23794 16.0726 6.05178 15.4603C5.86705 14.847 6.21289 14.2004 6.82518 14.0139C12.2274 12.3747 18.9435 13.1687 23.5352 15.9904C24.0805 16.3261 24.2528 17.0402 23.9171 17.5848V17.5846ZM24.0734 13.367C19.2792 10.5194 11.3693 10.2576 6.79197 11.6468C6.05693 11.8697 5.27962 11.4548 5.05688 10.7197C4.83413 9.98436 5.24872 9.20759 5.98428 8.98413C11.2388 7.38901 19.9737 7.6972 25.4934 10.9739C26.156 11.3663 26.3727 12.2202 25.9801 12.8804C25.5893 13.5416 24.7331 13.7595 24.0741 13.367H24.0734ZM40.8701 13.9126C38.3016 13.3002 37.8451 12.8703 37.8451 11.9671C37.8451 11.1137 38.648 10.5395 39.8434 10.5395C41.0016 10.5395 42.1491 10.9755 43.3534 11.8733C43.3889 11.9005 43.4351 11.9113 43.4795 11.9042C43.5257 11.8974 43.5648 11.8727 43.5914 11.8356L44.8455 10.0678C44.897 9.99502 44.8828 9.89466 44.8135 9.83906C43.38 8.68926 41.7672 8.13026 39.8807 8.13026C37.1079 8.13026 35.17 9.79448 35.17 12.1756C35.17 14.729 36.8415 15.6332 39.7297 16.3311C42.1864 16.8972 42.602 17.3715 42.602 18.2191C42.602 19.1588 41.7636 19.7432 40.4136 19.7432C38.9144 19.7432 37.6905 19.2369 36.3228 18.0539C36.289 18.0237 36.2429 18.0113 36.2002 18.0131C36.154 18.0166 36.1132 18.0379 36.0848 18.0717L34.6779 19.7449C34.6193 19.816 34.6264 19.919 34.6939 19.9794C36.2855 21.4005 38.243 22.1501 40.3568 22.1501C43.3445 22.1501 45.2754 20.5176 45.2754 17.99C45.2807 15.8572 44.0035 14.6759 40.8755 13.915L40.8701 13.9126ZM52.036 11.3796C50.741 11.3796 49.6788 11.8898 48.8013 12.9352V11.7585C48.8013 11.6656 48.7267 11.59 48.6343 11.59H46.334C46.2417 11.59 46.1671 11.6656 46.1671 11.7585V24.8323C46.1671 24.9246 46.2417 25.001 46.334 25.001H48.6343C48.7267 25.001 48.8013 24.9246 48.8013 24.8323V20.7059C49.6788 21.6882 50.741 22.1696 52.036 22.1696C54.4428 22.1696 56.8799 20.3169 56.8799 16.7752C56.8835 13.2327 54.4464 11.3795 52.0377 11.3795L52.036 11.3796ZM54.2048 16.7752C54.2048 18.5779 53.0946 19.8373 51.5031 19.8373C49.931 19.8373 48.7445 18.5211 48.7445 16.7752C48.7445 15.0291 49.931 13.7132 51.5031 13.7132C53.068 13.713 54.2048 15.0005 54.2048 16.775V16.7752ZM63.1236 11.3796C60.024 11.3796 57.5958 13.7663 57.5958 16.8137C57.5958 19.8284 60.008 22.1891 63.0863 22.1891C66.1966 22.1891 68.6319 19.8107 68.6319 16.7752C68.6319 13.7499 66.2126 11.38 63.1236 11.38V11.3796ZM63.1236 19.8551C61.4752 19.8551 60.2318 18.53 60.2318 16.7743C60.2318 15.0106 61.4326 13.7308 63.0863 13.7308C64.7454 13.7308 65.9959 15.0553 65.9959 16.8128C65.9959 18.5761 64.788 19.8551 63.1236 19.8551ZM75.2504 11.59H72.7192V9.0026C72.7192 8.90988 72.6446 8.83421 72.5522 8.83421H70.2519C70.1596 8.83421 70.0832 8.90988 70.0832 9.0026V11.59H68.9783C68.8859 11.59 68.8113 11.6656 68.8113 11.7585V13.735C68.8113 13.8277 68.8859 13.9036 68.9783 13.9036H70.0832V19.0184C70.0832 21.0843 71.1116 22.1323 73.142 22.1323C73.9662 22.1323 74.65 21.9618 75.2948 21.5959C75.3481 21.5674 75.3801 21.5106 75.3801 21.4502V19.5673C75.3801 19.5105 75.3499 19.4554 75.3002 19.4252C75.2504 19.3932 75.1883 19.3915 75.1367 19.4181C74.6945 19.6401 74.2664 19.7432 73.7868 19.7432C73.0496 19.7432 72.7192 19.4075 72.7192 18.6579V13.9045H75.2504C75.3428 13.9045 75.4174 13.8288 75.4174 13.7359V11.7596C75.421 11.6667 75.3464 11.591 75.2522 11.591L75.2504 11.59ZM84.068 11.6001V11.2823C84.068 10.3474 84.4268 9.93054 85.2297 9.93054C85.7093 9.93054 86.0947 10.0257 86.5264 10.1696C86.5797 10.1863 86.6348 10.178 86.6774 10.1462C86.7218 10.1144 86.7467 10.0634 86.7467 10.0094V8.07146C86.7467 7.99739 86.7005 7.93185 86.6276 7.91C86.1729 7.77447 85.5903 7.63538 84.7163 7.63538C82.5937 7.63538 81.4693 8.83154 81.4693 11.0933V11.58H80.3644C80.272 11.58 80.1957 11.6557 80.1957 11.7484V13.735C80.1957 13.8277 80.272 13.9036 80.3644 13.9036H81.4693V21.7912C81.4693 21.8854 81.5456 21.96 81.638 21.96H83.9365C84.0307 21.96 84.1053 21.8854 84.1053 21.7912V13.9041H86.2528L89.5426 21.7912C89.1695 22.619 88.8018 22.7842 88.3009 22.7842C87.8959 22.7842 87.4678 22.6634 87.0326 22.4236C86.9918 22.4023 86.942 22.3987 86.8994 22.4112C86.855 22.4272 86.8177 22.4591 86.7999 22.5018L86.0201 24.2123C85.9828 24.2941 86.0148 24.3882 86.093 24.4308C86.9065 24.8714 87.6401 25.0596 88.5478 25.0596C90.246 25.0596 91.1856 24.2674 92.0116 22.1394L96.0012 11.8303C96.0225 11.7784 96.0154 11.7198 95.9834 11.6738C95.9532 11.6281 95.9017 11.6006 95.8466 11.6006H93.4522C93.3794 11.6006 93.3154 11.6463 93.2923 11.7136L90.8393 18.7182L88.1535 11.709C88.1286 11.6438 88.0664 11.6006 87.9972 11.6006H84.068V11.6001ZM78.9558 11.59H76.6555C76.5631 11.59 76.4867 11.6656 76.4867 11.7585V21.7912C76.4867 21.8854 76.5631 21.96 76.6555 21.96H78.9558C79.0482 21.96 79.1245 21.8854 79.1245 21.7912V11.7592C79.1245 11.6663 79.0499 11.5907 78.9558 11.5907V11.59ZM77.819 7.02149C76.9077 7.02149 76.1688 7.75901 76.1688 8.67008C76.1688 9.58167 76.9077 10.3201 77.819 10.3201C78.7302 10.3201 79.4674 9.58167 79.4674 8.67008C79.4674 7.75919 78.7284 7.02149 77.819 7.02149ZM97.9658 14.8159C97.0563 14.8159 96.3476 14.0849 96.3476 13.1973C96.3476 12.3097 97.0652 11.5704 97.9747 11.5704C98.8841 11.5704 99.5929 12.3012 99.5929 13.1881C99.5929 14.0757 98.8752 14.8159 97.9658 14.8159ZM97.9747 11.7314C97.1451 11.7314 96.5181 12.3904 96.5181 13.1973C96.5181 14.004 97.1416 14.6541 97.9658 14.6541C98.7953 14.6541 99.4223 13.9956 99.4223 13.1881C99.4223 12.3815 98.7989 11.7314 97.9747 11.7314ZM98.3335 13.3545L98.7917 13.9954H98.4045L97.9924 13.4075H97.6389V13.9954H97.3156V12.2966H98.0723C98.4685 12.2966 98.7278 12.4985 98.7278 12.8385C98.7296 13.117 98.5679 13.2872 98.3352 13.3545H98.3335ZM98.0599 12.5881H97.6389V13.1254H98.0599C98.2695 13.1254 98.3956 13.0225 98.3956 12.8565C98.3956 12.6817 98.2695 12.5881 98.0599 12.5881Z" fill="#4C4C4D"/>
</svg>
