<svg width="26" height="17" viewBox="0 0 26 17" fill="none" xmlns="http://www.w3.org/2000/svg">
<path fill-rule="evenodd" clip-rule="evenodd" d="M0.25 1.0625C0.25 0.475697 0.725697 0 1.3125 0H24.6875C25.2743 0 25.75 0.475697 25.75 1.0625C25.75 1.6493 25.2743 2.125 24.6875 2.125H1.3125C0.725697 2.125 0.25 1.6493 0.25 1.0625ZM0.25 8.5C0.25 7.9132 0.725697 7.4375 1.3125 7.4375H24.6875C25.2743 7.4375 25.75 7.9132 25.75 8.5C25.75 9.0868 25.2743 9.5625 24.6875 9.5625H1.3125C0.725697 9.5625 0.25 9.0868 0.25 8.5ZM11.9375 15.9375C11.9375 15.3507 12.4132 14.875 13 14.875H24.6875C25.2743 14.875 25.75 15.3507 25.75 15.9375C25.75 16.5243 25.2743 17 24.6875 17H13C12.4132 17 11.9375 16.5243 11.9375 15.9375Z" fill="#262626"/>
</svg>
