<svg width="31" height="30" viewBox="0 0 31 30" fill="none" xmlns="http://www.w3.org/2000/svg">
<path fill-rule="evenodd" clip-rule="evenodd" d="M8 15C8 14.3787 8.50368 13.875 9.125 13.875H19.0819L15.8453 10.9359C15.3974 10.5053 15.3834 9.79312 15.8141 9.34525C16.2447 8.89739 16.9569 8.88342 17.4047 9.31406L22.6547 14.1891C22.8753 14.4012 23 14.694 23 15C23 15.306 22.8753 15.5988 22.6547 15.8109L17.4047 20.6859C16.9569 21.1166 16.2447 21.1026 15.8141 20.6547C15.3834 20.2069 15.3974 19.4947 15.8453 19.0641L19.0819 16.125H9.125C8.50368 16.125 8 15.6213 8 15Z" fill="#262626"/>
</svg>
